<?xml version="1.0" encoding="UTF-8"?>
<svg id="Layer_1" xmlns="http://www.w3.org/2000/svg" version="1.1" viewBox="0 0 64 64">
  <!-- Generator: Adobe Illustrator 30.2.1, SVG Export Plug-In . SVG Version: 2.1.1 Build 1)  -->
  <defs>
    <style>
      .st0 {
        fill: #ff6700;
      }

      .st1 {
        fill: #fff;
      }
    </style>
  </defs>
  <rect class="st0" x=".58" y=".68" width="62.84" height="62.84" rx="4.9" ry="4.9"/>
  <path class="st1" d="M12.5,40.05c0-4.39,2.85-4.99,8.34-4.99s8.28.6,8.28,4.99v1.32c0,1.65.38,2.03,1.48,2.08h.88c1.21,0,1.48-.38,1.48-2.08v-16.78c0-15.74.55-16.78,8.88-16.78s8.83,1.21,8.83,18.59v18.65c0,7.62-4.61,11.74-12.12,11.74h-13.93c-7.51,0-12.12-4.11-12.12-11.74v-4.99ZM46.78,12.52c.55,0,.88-.44.88-.93,0-.82-1.48-1.86-2.19-1.86-.49,0-.82.38-.82.93,0,.38.22.71.66.82.6.16.77,1.04,1.48,1.04Z"/>
</svg>